<?xml version="1.0" encoding="UTF-8"?>
<svg xmlns="http://www.w3.org/2000/svg" viewBox="0 0 1228.02 1183.87">
  <defs>
    <style>
      .cls-1 {
        fill: #4bab3a;
      }

      .cls-1, .cls-2, .cls-3, .cls-4, .cls-5, .cls-6, .cls-7, .cls-8, .cls-9, .cls-10, .cls-11, .cls-12, .cls-13, .cls-14, .cls-15, .cls-16, .cls-17, .cls-18, .cls-19, .cls-20, .cls-21, .cls-22, .cls-23, .cls-24, .cls-25, .cls-26, .cls-27, .cls-28, .cls-29, .cls-30, .cls-31, .cls-32, .cls-33, .cls-34, .cls-35, .cls-36, .cls-37, .cls-38, .cls-39, .cls-40, .cls-41, .cls-42, .cls-43, .cls-44, .cls-45, .cls-46, .cls-47, .cls-48, .cls-49, .cls-50, .cls-51, .cls-52, .cls-53, .cls-54, .cls-55, .cls-56, .cls-57, .cls-58, .cls-59, .cls-60, .cls-61, .cls-62, .cls-63 {
        stroke-width: 0px;
      }

      .cls-2 {
        fill: #f8c6b5;
      }

      .cls-3 {
        fill: #f5b39c;
      }

      .cls-4 {
        fill: #5ab24a;
      }

      .cls-5 {
        fill: #f08663;
      }

      .cls-6 {
        fill: #e9f4e6;
      }

      .cls-7 {
        fill: #f9ccbd;
      }

      .cls-8 {
        fill: #ec663a;
      }

      .cls-9 {
        fill: #daedd6;
      }

      .cls-10 {
        fill: #69b95a;
      }

      .cls-11 {
        fill: #53ae42;
      }

      .cls-64 {
        mix-blend-mode: multiply;
        opacity: .2;
      }

      .cls-12 {
        fill: #bcdfb5;
      }

      .cls-13 {
        fill: #e1f1de;
      }

      .cls-14 {
        fill: #179200;
      }

      .cls-65 {
        isolation: isolate;
      }

      .cls-15 {
        fill: #fce6de;
      }

      .cls-16 {
        fill: #269910;
      }

      .cls-17 {
        fill: #62b552;
      }

      .cls-18 {
        fill: #8fca84;
      }

      .cls-19 {
        fill: #add8a5;
      }

      .cls-20 {
        fill: #2d9d19;
      }

      .cls-21 {
        fill: #e95321;
      }

      .cls-22 {
        fill: #f5ac94;
      }

      .cls-23 {
        fill: #f7bfad;
      }

      .cls-24 {
        fill: #e74008;
      }

      .cls-25 {
        fill: #71bc63;
      }

      .cls-26 {
        fill: #f6b9a5;
      }

      .cls-27 {
        fill: #e63a00;
      }

      .cls-28 {
        fill: #80c373;
      }

      .cls-29 {
        fill: #fdf2ef;
      }

      .cls-30 {
        fill: #eb6031;
      }

      .cls-31 {
        fill: #e84710;
      }

      .cls-32 {
        fill: #f9d3c5;
      }

      .cls-33 {
        fill: #fbdfd6;
      }

      .cls-34 {
        fill: #f0f8ef;
      }

      .cls-35 {
        fill: #fff;
      }

      .cls-36 {
        fill: #cbe6c5;
      }

      .cls-37 {
        fill: #a5d59c;
      }

      .cls-38 {
        fill: #1e9608;
      }

      .cls-39 {
        fill: #fad9ce;
      }

      .cls-40 {
        fill: #96ce8c;
      }

      .cls-41 {
        fill: #ea5a29;
      }

      .cls-42 {
        fill: #f8fbf7;
      }

      .cls-43 {
        fill: #e84d19;
      }

      .cls-44 {
        fill: #d2eace;
      }

      .cls-45 {
        fill: #f08d6b;
      }

      .cls-46 {
        fill: #87c77b;
      }

      .cls-47 {
        fill: #b4dcad;
      }

      .cls-48 {
        fill: #ed734a;
      }

      .cls-49 {
        fill: #35a021;
      }

      .cls-50 {
        fill: #3ca429;
      }

      .cls-51 {
        fill: #ee7a52;
      }

      .cls-52 {
        fill: #78c06b;
      }

      .cls-53 {
        fill: #f3a084;
      }

      .cls-54 {
        fill: #f19373;
      }

      .cls-55 {
        fill: #f2997b;
      }

      .cls-56 {
        fill: #44a731;
      }

      .cls-57 {
        fill: #fef9f7;
      }

      .cls-58 {
        fill: #9ed194;
      }

      .cls-59 {
        fill: #ec6d42;
      }

      .cls-60 {
        fill: #c3e3bd;
      }

      .cls-61 {
        fill: #fdece6;
      }

      .cls-62 {
        fill: #ef805a;
      }

      .cls-63 {
        fill: #f4a68c;
      }
    </style>
  </defs>
  <g class="cls-65">
    <g id="Layer_2" data-name="Layer 2">
      <g id="Layer_1-2" data-name="Layer 1">
        <g>
          <g>
            <rect class="cls-14" x="730.36" y="950.71" width="481.05" height="156.62" rx="39.68" ry="39.68" transform="translate(1941.77 2058.04) rotate(180)"/>
            <polygon class="cls-14" points="970.89 904.56 921.59 979.17 1020.18 979.17 970.89 904.56"/>
            <g>
              <path class="cls-35" d="m910.3,1032.66c2.11,2.76,3.16,6.09,3.16,9.99,0,5.7-2.29,10.1-6.88,13.2-4.58,3.1-11.21,4.65-19.89,4.65h-35.14v-65.07h33.28c8.31,0,14.62,1.54,18.97,4.6,4.34,3.07,6.5,7.2,6.5,12.41,0,3.1-.76,5.87-2.27,8.32-1.52,2.45-3.68,4.38-6.47,5.81,3.72,1.3,6.63,3.33,8.74,6.09Zm-40.53-23.94v12.55h12.64c6.2,0,9.3-2.11,9.3-6.32s-3.1-6.23-9.3-6.23h-12.64Zm25.1,31.89c0-4.4-3.22-6.6-9.67-6.6h-15.43v13.2h15.43c6.44,0,9.67-2.2,9.67-6.6Z"/>
              <path class="cls-35" d="m948.18,1053.9c-5.36-5.26-8.04-12.74-8.04-22.4v-36.07h18.41v35.51c0,10.41,4.12,15.62,12.36,15.62s12.27-5.2,12.27-15.62v-35.51h18.13v36.07c0,9.67-2.68,17.14-8.04,22.4-5.37,5.27-12.88,7.9-22.54,7.9s-17.18-2.63-22.54-7.9Z"/>
              <path class="cls-35" d="m1065.36,1037.16v23.33h-18.41v-23.61l-24.82-41.46h19.43l15.43,25.84,15.43-25.84h17.85l-24.91,41.74Z"/>
            </g>
          </g>
          <g>
            <g>
              <path class="cls-27" d="m182.11,0h401.69c21.9,0,39.68,17.78,39.68,39.68v77.26c0,21.9-17.78,39.68-39.68,39.68H182.11c-21.9,0-39.68-17.78-39.68-39.68V39.68c0-21.9,17.78-39.68,39.68-39.68Z"/>
              <polygon class="cls-27" points="382.96 202.77 432.25 128.16 333.66 128.16 382.96 202.77"/>
            </g>
            <g>
              <path class="cls-35" d="m248.32,107.5c-4.96-1.3-8.98-3.04-12.08-5.2l6.04-13.57c2.91,1.92,6.29,3.47,10.14,4.65,3.84,1.18,7.62,1.77,11.34,1.77,7.06,0,10.6-1.77,10.6-5.3,0-1.86-1.01-3.24-3.02-4.14-2.01-.9-5.25-1.84-9.72-2.83-4.89-1.05-8.98-2.19-12.26-3.4-3.29-1.21-6.11-3.14-8.46-5.81-2.36-2.66-3.54-6.26-3.54-10.78,0-3.97,1.09-7.55,3.26-10.74,2.17-3.19,5.4-5.72,9.71-7.57,4.31-1.86,9.59-2.79,15.85-2.79,4.27,0,8.49.48,12.64,1.44,4.15.96,7.81,2.37,10.97,4.23l-5.67,13.67c-6.2-3.35-12.21-5.02-18.03-5.02-3.66,0-6.32.54-8,1.63-1.67,1.09-2.51,2.5-2.51,4.23s.99,3.04,2.98,3.91c1.99.87,5.17,1.77,9.57,2.69,4.96,1.05,9.06,2.19,12.31,3.4,3.26,1.21,6.08,3.13,8.46,5.76,2.39,2.64,3.58,6.21,3.58,10.74,0,3.91-1.09,7.44-3.25,10.6-2.17,3.16-5.42,5.69-9.76,7.58-4.34,1.89-9.61,2.83-15.8,2.83-5.27,0-10.38-.65-15.34-1.95Z"/>
              <path class="cls-35" d="m370.84,93.93v14.22h-52.24V43.08h51.03v14.22h-32.81v10.97h28.91v13.76h-28.91v11.9h34.02Z"/>
              <path class="cls-35" d="m398.73,43.08h18.4v50.48h31.05v14.59h-49.45V43.08Z"/>
              <path class="cls-35" d="m473.09,43.08h18.4v50.48h31.05v14.59h-49.45V43.08Z"/>
            </g>
          </g>
          <g class="cls-64">
            <g>
              <polygon class="cls-35" points="850.84 432.61 838.41 432.61 838.41 631.48 782.5 631.48 782.5 804.39 838.41 804.39 838.41 1003.25 850.84 1003.25 850.84 804.39 906.75 804.39 906.75 631.48 850.84 631.48 850.84 432.61"/>
              <polygon class="cls-35" points="655.21 587.23 642.79 587.23 642.79 738.59 586.87 738.59 586.87 870.2 642.79 870.2 642.79 1021.56 655.21 1021.56 655.21 870.2 711.13 870.2 711.13 738.59 655.21 738.59 655.21 587.23"/>
              <polygon class="cls-35" points="459.59 600.71 447.16 600.71 447.16 803.93 391.25 803.93 391.25 980.65 447.16 980.65 447.16 1183.87 459.59 1183.87 459.59 980.65 515.5 980.65 515.5 803.93 459.59 803.93 459.59 600.71"/>
              <polygon class="cls-35" points="262.53 363.06 252.97 363.06 252.97 546.23 195.62 546.23 195.62 930.95 252.97 930.95 252.97 1114.1 262.53 1114.1 262.53 930.95 319.88 930.95 319.88 546.23 262.53 546.23 262.53 363.06"/>
              <polygon class="cls-35" points="68.34 364.63 55.91 364.63 55.91 599.6 0 599.6 0 803.93 55.91 803.93 55.91 1038.9 68.34 1038.9 68.34 803.93 124.25 803.93 124.25 599.6 68.34 599.6 68.34 364.63"/>
              <polygon class="cls-35" points="1102.37 446.82 1046.46 446.82 1046.46 211.85 1034.04 211.85 1034.04 446.82 978.12 446.82 978.12 651.15 1034.04 651.15 1034.04 886.12 1046.46 886.12 1046.46 651.15 1102.37 651.15 1102.37 446.82"/>
            </g>
            <g>
              <polygon class="cls-42" points="854.89 428.56 842.47 428.56 842.47 627.43 786.55 627.43 786.55 800.34 842.47 800.34 842.47 999.2 854.89 999.2 854.89 800.34 910.8 800.34 910.8 627.43 854.89 627.43 854.89 428.56"/>
              <polygon class="cls-57" points="659.27 583.17 646.84 583.17 646.84 734.53 590.93 734.53 590.93 866.15 646.84 866.15 646.84 1017.51 659.27 1017.51 659.27 866.15 715.18 866.15 715.18 734.53 659.27 734.53 659.27 583.17"/>
              <polygon class="cls-42" points="463.64 596.65 451.21 596.65 451.21 799.87 395.3 799.87 395.3 976.59 451.21 976.59 451.21 1179.81 463.64 1179.81 463.64 976.59 519.55 976.59 519.55 799.87 463.64 799.87 463.64 596.65"/>
              <polygon class="cls-57" points="266.58 359.01 257.02 359.01 257.02 542.17 199.68 542.17 199.68 926.89 257.02 926.89 257.02 1110.04 266.58 1110.04 266.58 926.89 323.93 926.89 323.93 542.17 266.58 542.17 266.58 359.01"/>
              <polygon class="cls-42" points="72.39 360.57 59.97 360.57 59.97 595.55 4.05 595.55 4.05 799.87 59.97 799.87 59.97 1034.85 72.39 1034.85 72.39 799.87 128.3 799.87 128.3 595.55 72.39 595.55 72.39 360.57"/>
              <polygon class="cls-42" points="1106.43 442.77 1050.51 442.77 1050.51 207.79 1038.09 207.79 1038.09 442.77 982.18 442.77 982.18 647.1 1038.09 647.1 1038.09 882.07 1050.51 882.07 1050.51 647.1 1106.43 647.1 1106.43 442.77"/>
            </g>
            <g>
              <polygon class="cls-34" points="858.94 424.51 846.52 424.51 846.52 623.37 790.6 623.37 790.6 796.28 846.52 796.28 846.52 995.15 858.94 995.15 858.94 796.28 914.86 796.28 914.86 623.37 858.94 623.37 858.94 424.51"/>
              <polygon class="cls-29" points="663.32 579.12 650.89 579.12 650.89 730.48 594.98 730.48 594.98 862.1 650.89 862.1 650.89 1013.46 663.32 1013.46 663.32 862.1 719.23 862.1 719.23 730.48 663.32 730.48 663.32 579.12"/>
              <polygon class="cls-34" points="467.69 592.6 455.27 592.6 455.27 795.82 399.35 795.82 399.35 972.54 455.27 972.54 455.27 1175.76 467.69 1175.76 467.69 972.54 523.61 972.54 523.61 795.82 467.69 795.82 467.69 592.6"/>
              <polygon class="cls-29" points="270.64 354.96 261.08 354.96 261.08 538.12 203.73 538.12 203.73 922.84 261.08 922.84 261.08 1105.99 270.64 1105.99 270.64 922.84 327.98 922.84 327.98 538.12 270.64 538.12 270.64 354.96"/>
              <polygon class="cls-34" points="76.44 356.52 64.02 356.52 64.02 591.5 8.11 591.5 8.11 795.82 64.02 795.82 64.02 1030.8 76.44 1030.8 76.44 795.82 132.36 795.82 132.36 591.5 76.44 591.5 76.44 356.52"/>
              <polygon class="cls-34" points="1110.48 438.72 1054.57 438.72 1054.57 203.74 1042.14 203.74 1042.14 438.72 986.23 438.72 986.23 643.04 1042.14 643.04 1042.14 878.02 1054.57 878.02 1054.57 643.04 1110.48 643.04 1110.48 438.72"/>
            </g>
            <g>
              <polygon class="cls-6" points="863 420.46 850.57 420.46 850.57 619.32 794.66 619.32 794.66 792.23 850.57 792.23 850.57 991.09 863 991.09 863 792.23 918.91 792.23 918.91 619.32 863 619.32 863 420.46"/>
              <polygon class="cls-61" points="667.37 575.07 654.95 575.07 654.95 726.43 599.03 726.43 599.03 858.04 654.95 858.04 654.95 1009.4 667.37 1009.4 667.37 858.04 723.29 858.04 723.29 726.43 667.37 726.43 667.37 575.07"/>
              <polygon class="cls-6" points="471.75 588.55 459.32 588.55 459.32 791.77 403.41 791.77 403.41 968.49 459.32 968.49 459.32 1171.71 471.75 1171.71 471.75 968.49 527.66 968.49 527.66 791.77 471.75 791.77 471.75 588.55"/>
              <polygon class="cls-61" points="274.69 350.9 265.13 350.9 265.13 534.07 207.78 534.07 207.78 918.79 265.13 918.79 265.13 1101.94 274.69 1101.94 274.69 918.79 332.03 918.79 332.03 534.07 274.69 534.07 274.69 350.9"/>
              <polygon class="cls-6" points="80.5 352.47 68.07 352.47 68.07 587.44 12.16 587.44 12.16 791.77 68.07 791.77 68.07 1026.74 80.5 1026.74 80.5 791.77 136.41 791.77 136.41 587.44 80.5 587.44 80.5 352.47"/>
              <polygon class="cls-6" points="1114.53 434.66 1058.62 434.66 1058.62 199.69 1046.2 199.69 1046.2 434.66 990.28 434.66 990.28 638.99 1046.2 638.99 1046.2 873.96 1058.62 873.96 1058.62 638.99 1114.53 638.99 1114.53 434.66"/>
            </g>
            <g>
              <polygon class="cls-13" points="867.05 416.4 854.62 416.4 854.62 615.27 798.71 615.27 798.71 788.18 854.62 788.18 854.62 987.04 867.05 987.04 867.05 788.18 922.96 788.18 922.96 615.27 867.05 615.27 867.05 416.4"/>
              <polygon class="cls-15" points="671.42 571.01 659 571.01 659 722.37 603.09 722.37 603.09 853.99 659 853.99 659 1005.35 671.42 1005.35 671.42 853.99 727.34 853.99 727.34 722.37 671.42 722.37 671.42 571.01"/>
              <polygon class="cls-13" points="475.8 584.49 463.37 584.49 463.37 787.72 407.46 787.72 407.46 964.44 463.37 964.44 463.37 1167.66 475.8 1167.66 475.8 964.44 531.71 964.44 531.71 787.72 475.8 787.72 475.8 584.49"/>
              <polygon class="cls-15" points="278.74 346.85 269.18 346.85 269.18 530.01 211.84 530.01 211.84 914.73 269.18 914.73 269.18 1097.89 278.74 1097.89 278.74 914.73 336.09 914.73 336.09 530.01 278.74 530.01 278.74 346.85"/>
              <polygon class="cls-13" points="84.55 348.41 72.13 348.41 72.13 583.39 16.21 583.39 16.21 787.72 72.13 787.72 72.13 1022.69 84.55 1022.69 84.55 787.72 140.46 787.72 140.46 583.39 84.55 583.39 84.55 348.41"/>
              <polygon class="cls-13" points="1118.59 430.61 1062.67 430.61 1062.67 195.64 1050.25 195.64 1050.25 430.61 994.33 430.61 994.33 634.94 1050.25 634.94 1050.25 869.91 1062.67 869.91 1062.67 634.94 1118.59 634.94 1118.59 430.61"/>
            </g>
            <g>
              <polygon class="cls-9" points="871.1 412.35 858.68 412.35 858.68 611.21 802.76 611.21 802.76 784.12 858.68 784.12 858.68 982.99 871.1 982.99 871.1 784.12 927.02 784.12 927.02 611.21 871.1 611.21 871.1 412.35"/>
              <polygon class="cls-33" points="675.48 566.96 663.05 566.96 663.05 718.32 607.14 718.32 607.14 849.94 663.05 849.94 663.05 1001.3 675.48 1001.3 675.48 849.94 731.39 849.94 731.39 718.32 675.48 718.32 675.48 566.96"/>
              <polygon class="cls-9" points="479.85 580.44 467.43 580.44 467.43 783.66 411.51 783.66 411.51 960.38 467.43 960.38 467.43 1163.6 479.85 1163.6 479.85 960.38 535.77 960.38 535.77 783.66 479.85 783.66 479.85 580.44"/>
              <polygon class="cls-33" points="282.8 342.8 273.23 342.8 273.23 525.96 215.89 525.96 215.89 910.68 273.23 910.68 273.23 1093.83 282.8 1093.83 282.8 910.68 340.14 910.68 340.14 525.96 282.8 525.96 282.8 342.8"/>
              <polygon class="cls-9" points="88.6 344.36 76.18 344.36 76.18 579.34 20.26 579.34 20.26 783.66 76.18 783.66 76.18 1018.64 88.6 1018.64 88.6 783.66 144.52 783.66 144.52 579.34 88.6 579.34 88.6 344.36"/>
              <polygon class="cls-9" points="1122.64 426.56 1066.73 426.56 1066.73 191.58 1054.3 191.58 1054.3 426.56 998.39 426.56 998.39 630.88 1054.3 630.88 1054.3 865.86 1066.73 865.86 1066.73 630.88 1122.64 630.88 1122.64 426.56"/>
            </g>
            <g>
              <polygon class="cls-44" points="875.15 408.3 862.73 408.3 862.73 607.16 806.82 607.16 806.82 780.07 862.73 780.07 862.73 978.93 875.15 978.93 875.15 780.07 931.07 780.07 931.07 607.16 875.15 607.16 875.15 408.3"/>
              <polygon class="cls-39" points="679.53 562.91 667.11 562.91 667.11 714.27 611.19 714.27 611.19 845.89 667.11 845.89 667.11 997.25 679.53 997.25 679.53 845.89 735.44 845.89 735.44 714.27 679.53 714.27 679.53 562.91"/>
              <polygon class="cls-44" points="483.91 576.39 471.48 576.39 471.48 779.61 415.57 779.61 415.57 956.33 471.48 956.33 471.48 1159.55 483.91 1159.55 483.91 956.33 539.82 956.33 539.82 779.61 483.91 779.61 483.91 576.39"/>
              <polygon class="cls-39" points="286.85 338.74 277.29 338.74 277.29 521.91 219.94 521.91 219.94 906.63 277.29 906.63 277.29 1089.78 286.85 1089.78 286.85 906.63 344.19 906.63 344.19 521.91 286.85 521.91 286.85 338.74"/>
              <polygon class="cls-44" points="92.66 340.31 80.23 340.31 80.23 575.28 24.32 575.28 24.32 779.61 80.23 779.61 80.23 1014.58 92.66 1014.58 92.66 779.61 148.57 779.61 148.57 575.28 92.66 575.28 92.66 340.31"/>
              <polygon class="cls-44" points="1126.69 422.51 1070.78 422.51 1070.78 187.53 1058.35 187.53 1058.35 422.51 1002.44 422.51 1002.44 626.83 1058.35 626.83 1058.35 861.81 1070.78 861.81 1070.78 626.83 1126.69 626.83 1126.69 422.51"/>
            </g>
            <g>
              <polygon class="cls-36" points="879.21 404.24 866.78 404.24 866.78 603.11 810.87 603.11 810.87 776.02 866.78 776.02 866.78 974.88 879.21 974.88 879.21 776.02 935.12 776.02 935.12 603.11 879.21 603.11 879.21 404.24"/>
              <polygon class="cls-32" points="683.58 558.85 671.16 558.85 671.16 710.21 615.24 710.21 615.24 841.83 671.16 841.83 671.16 993.19 683.58 993.19 683.58 841.83 739.5 841.83 739.5 710.21 683.58 710.21 683.58 558.85"/>
              <polygon class="cls-36" points="487.96 572.34 475.53 572.34 475.53 775.56 419.62 775.56 419.62 952.28 475.53 952.28 475.53 1155.5 487.96 1155.5 487.96 952.28 543.87 952.28 543.87 775.56 487.96 775.56 487.96 572.34"/>
              <polygon class="cls-32" points="290.9 334.69 281.34 334.69 281.34 517.85 223.99 517.85 223.99 902.58 281.34 902.58 281.34 1085.73 290.9 1085.73 290.9 902.58 348.25 902.58 348.25 517.85 290.9 517.85 290.9 334.69"/>
              <polygon class="cls-36" points="96.71 336.26 84.28 336.26 84.28 571.23 28.37 571.23 28.37 775.56 84.28 775.56 84.28 1010.53 96.71 1010.53 96.71 775.56 152.62 775.56 152.62 571.23 96.71 571.23 96.71 336.26"/>
              <polygon class="cls-36" points="1130.75 418.45 1074.83 418.45 1074.83 183.48 1062.41 183.48 1062.41 418.45 1006.49 418.45 1006.49 622.78 1062.41 622.78 1062.41 857.75 1074.83 857.75 1074.83 622.78 1130.75 622.78 1130.75 418.45"/>
            </g>
            <g>
              <polygon class="cls-60" points="883.26 400.19 870.84 400.19 870.84 599.05 814.92 599.05 814.92 771.96 870.84 771.96 870.84 970.83 883.26 970.83 883.26 771.96 939.17 771.96 939.17 599.05 883.26 599.05 883.26 400.19"/>
              <polygon class="cls-7" points="687.64 554.8 675.21 554.8 675.21 706.16 619.3 706.16 619.3 837.78 675.21 837.78 675.21 989.14 687.64 989.14 687.64 837.78 743.55 837.78 743.55 706.16 687.64 706.16 687.64 554.8"/>
              <polygon class="cls-60" points="492.01 568.28 479.59 568.28 479.59 771.5 423.67 771.5 423.67 948.22 479.59 948.22 479.59 1151.44 492.01 1151.44 492.01 948.22 547.93 948.22 547.93 771.5 492.01 771.5 492.01 568.28"/>
              <polygon class="cls-7" points="294.95 330.64 285.39 330.64 285.39 513.8 228.05 513.8 228.05 898.52 285.39 898.52 285.39 1081.67 294.95 1081.67 294.95 898.52 352.3 898.52 352.3 513.8 294.95 513.8 294.95 330.64"/>
              <polygon class="cls-60" points="100.76 332.2 88.34 332.2 88.34 567.18 32.42 567.18 32.42 771.5 88.34 771.5 88.34 1006.48 100.76 1006.48 100.76 771.5 156.68 771.5 156.68 567.18 100.76 567.18 100.76 332.2"/>
              <polygon class="cls-60" points="1134.8 414.4 1078.89 414.4 1078.89 179.42 1066.46 179.42 1066.46 414.4 1010.55 414.4 1010.55 618.72 1066.46 618.72 1066.46 853.7 1078.89 853.7 1078.89 618.72 1134.8 618.72 1134.8 414.4"/>
            </g>
            <g>
              <polygon class="cls-12" points="887.31 396.14 874.89 396.14 874.89 595 818.98 595 818.98 767.91 874.89 767.91 874.89 966.78 887.31 966.78 887.31 767.91 943.23 767.91 943.23 595 887.31 595 887.31 396.14"/>
              <polygon class="cls-2" points="691.69 550.75 679.26 550.75 679.26 702.11 623.35 702.11 623.35 833.73 679.26 833.73 679.26 985.09 691.69 985.09 691.69 833.73 747.6 833.73 747.6 702.11 691.69 702.11 691.69 550.75"/>
              <polygon class="cls-12" points="496.06 564.23 483.64 564.23 483.64 767.45 427.73 767.45 427.73 944.17 483.64 944.17 483.64 1147.39 496.06 1147.39 496.06 944.17 551.98 944.17 551.98 767.45 496.06 767.45 496.06 564.23"/>
              <polygon class="cls-2" points="299.01 326.58 289.45 326.58 289.45 509.75 232.1 509.75 232.1 894.47 289.45 894.47 289.45 1077.62 299.01 1077.62 299.01 894.47 356.35 894.47 356.35 509.75 299.01 509.75 299.01 326.58"/>
              <polygon class="cls-12" points="104.81 328.15 92.39 328.15 92.39 563.13 36.48 563.13 36.48 767.45 92.39 767.45 92.39 1002.43 104.81 1002.43 104.81 767.45 160.73 767.45 160.73 563.13 104.81 563.13 104.81 328.15"/>
              <polygon class="cls-12" points="1138.85 410.35 1082.94 410.35 1082.94 175.37 1070.51 175.37 1070.51 410.35 1014.6 410.35 1014.6 614.67 1070.51 614.67 1070.51 849.65 1082.94 849.65 1082.94 614.67 1138.85 614.67 1138.85 410.35"/>
            </g>
            <g>
              <polygon class="cls-47" points="891.37 392.08 878.94 392.08 878.94 590.95 823.03 590.95 823.03 763.86 878.94 763.86 878.94 962.72 891.37 962.72 891.37 763.86 947.28 763.86 947.28 590.95 891.37 590.95 891.37 392.08"/>
              <polygon class="cls-23" points="695.74 546.7 683.32 546.7 683.32 698.06 627.4 698.06 627.4 829.67 683.32 829.67 683.32 981.03 695.74 981.03 695.74 829.67 751.66 829.67 751.66 698.06 695.74 698.06 695.74 546.7"/>
              <polygon class="cls-47" points="500.12 560.18 487.69 560.18 487.69 763.4 431.78 763.4 431.78 940.12 487.69 940.12 487.69 1143.34 500.12 1143.34 500.12 940.12 556.03 940.12 556.03 763.4 500.12 763.4 500.12 560.18"/>
              <polygon class="cls-23" points="303.06 322.53 293.5 322.53 293.5 505.7 236.15 505.7 236.15 890.42 293.5 890.42 293.5 1073.57 303.06 1073.57 303.06 890.42 360.41 890.42 360.41 505.7 303.06 505.7 303.06 322.53"/>
              <polygon class="cls-47" points="108.87 324.1 96.44 324.1 96.44 559.07 40.53 559.07 40.53 763.4 96.44 763.4 96.44 998.37 108.87 998.37 108.87 763.4 164.78 763.4 164.78 559.07 108.87 559.07 108.87 324.1"/>
              <polygon class="cls-47" points="1142.9 406.29 1086.99 406.29 1086.99 171.32 1074.57 171.32 1074.57 406.29 1018.65 406.29 1018.65 610.62 1074.57 610.62 1074.57 845.59 1086.99 845.59 1086.99 610.62 1142.9 610.62 1142.9 406.29"/>
            </g>
            <g>
              <polygon class="cls-19" points="895.42 388.03 882.99 388.03 882.99 586.9 827.08 586.9 827.08 759.81 882.99 759.81 882.99 958.67 895.42 958.67 895.42 759.81 951.33 759.81 951.33 586.9 895.42 586.9 895.42 388.03"/>
              <polygon class="cls-26" points="699.8 542.64 687.37 542.64 687.37 694 631.46 694 631.46 825.62 687.37 825.62 687.37 976.98 699.8 976.98 699.8 825.62 755.71 825.62 755.71 694 699.8 694 699.8 542.64"/>
              <polygon class="cls-19" points="504.17 556.12 491.74 556.12 491.74 759.34 435.83 759.34 435.83 936.06 491.74 936.06 491.74 1139.28 504.17 1139.28 504.17 936.06 560.08 936.06 560.08 759.34 504.17 759.34 504.17 556.12"/>
              <polygon class="cls-26" points="307.11 318.48 297.55 318.48 297.55 501.64 240.21 501.64 240.21 886.36 297.55 886.36 297.55 1069.51 307.11 1069.51 307.11 886.36 364.46 886.36 364.46 501.64 307.11 501.64 307.11 318.48"/>
              <polygon class="cls-19" points="112.92 320.04 100.5 320.04 100.5 555.02 44.58 555.02 44.58 759.34 100.5 759.34 100.5 994.32 112.92 994.32 112.92 759.34 168.83 759.34 168.83 555.02 112.92 555.02 112.92 320.04"/>
              <polygon class="cls-19" points="1146.96 402.24 1091.04 402.24 1091.04 167.26 1078.62 167.26 1078.62 402.24 1022.71 402.24 1022.71 606.57 1078.62 606.57 1078.62 841.54 1091.04 841.54 1091.04 606.57 1146.96 606.57 1146.96 402.24"/>
            </g>
            <g>
              <polygon class="cls-37" points="899.47 383.98 887.05 383.98 887.05 582.84 831.13 582.84 831.13 755.75 887.05 755.75 887.05 954.62 899.47 954.62 899.47 755.75 955.39 755.75 955.39 582.84 899.47 582.84 899.47 383.98"/>
              <polygon class="cls-3" points="703.85 538.59 691.42 538.59 691.42 689.95 635.51 689.95 635.51 821.57 691.42 821.57 691.42 972.93 703.85 972.93 703.85 821.57 759.76 821.57 759.76 689.95 703.85 689.95 703.85 538.59"/>
              <polygon class="cls-37" points="508.22 552.07 495.8 552.07 495.8 755.29 439.88 755.29 439.88 932.01 495.8 932.01 495.8 1135.23 508.22 1135.23 508.22 932.01 564.14 932.01 564.14 755.29 508.22 755.29 508.22 552.07"/>
              <polygon class="cls-3" points="311.17 314.43 301.61 314.43 301.61 497.59 244.26 497.59 244.26 882.31 301.61 882.31 301.61 1065.46 311.17 1065.46 311.17 882.31 368.51 882.31 368.51 497.59 311.17 497.59 311.17 314.43"/>
              <polygon class="cls-37" points="116.97 315.99 104.55 315.99 104.55 550.97 48.64 550.97 48.64 755.29 104.55 755.29 104.55 990.27 116.97 990.27 116.97 755.29 172.89 755.29 172.89 550.97 116.97 550.97 116.97 315.99"/>
              <polygon class="cls-37" points="1151.01 398.19 1095.1 398.19 1095.1 163.21 1082.67 163.21 1082.67 398.19 1026.76 398.19 1026.76 602.51 1082.67 602.51 1082.67 837.49 1095.1 837.49 1095.1 602.51 1151.01 602.51 1151.01 398.19"/>
            </g>
            <g>
              <polygon class="cls-58" points="903.53 379.93 891.1 379.93 891.1 578.79 835.19 578.79 835.19 751.7 891.1 751.7 891.1 950.56 903.53 950.56 903.53 751.7 959.44 751.7 959.44 578.79 903.53 578.79 903.53 379.93"/>
              <polygon class="cls-22" points="707.9 534.54 695.48 534.54 695.48 685.9 639.56 685.9 639.56 817.51 695.48 817.51 695.48 968.87 707.9 968.87 707.9 817.51 763.82 817.51 763.82 685.9 707.9 685.9 707.9 534.54"/>
              <polygon class="cls-58" points="512.28 548.02 499.85 548.02 499.85 751.24 443.94 751.24 443.94 927.96 499.85 927.96 499.85 1131.18 512.28 1131.18 512.28 927.96 568.19 927.96 568.19 751.24 512.28 751.24 512.28 548.02"/>
              <polygon class="cls-22" points="315.22 310.37 305.66 310.37 305.66 493.54 248.31 493.54 248.31 878.26 305.66 878.26 305.66 1061.41 315.22 1061.41 315.22 878.26 372.56 878.26 372.56 493.54 315.22 493.54 315.22 310.37"/>
              <polygon class="cls-58" points="121.03 311.94 108.6 311.94 108.6 546.91 52.69 546.91 52.69 751.24 108.6 751.24 108.6 986.21 121.03 986.21 121.03 751.24 176.94 751.24 176.94 546.91 121.03 546.91 121.03 311.94"/>
              <polygon class="cls-58" points="1155.06 394.13 1099.15 394.13 1099.15 159.16 1086.73 159.16 1086.73 394.13 1030.81 394.13 1030.81 598.46 1086.73 598.46 1086.73 833.43 1099.15 833.43 1099.15 598.46 1155.06 598.46 1155.06 394.13"/>
            </g>
            <g>
              <polygon class="cls-40" points="907.58 375.87 895.15 375.87 895.15 574.74 839.24 574.74 839.24 747.65 895.15 747.65 895.15 946.51 907.58 946.51 907.58 747.65 963.49 747.65 963.49 574.74 907.58 574.74 907.58 375.87"/>
              <polygon class="cls-63" points="711.95 530.48 699.53 530.48 699.53 681.84 643.62 681.84 643.62 813.46 699.53 813.46 699.53 964.82 711.95 964.82 711.95 813.46 767.87 813.46 767.87 681.84 711.95 681.84 711.95 530.48"/>
              <polygon class="cls-40" points="516.33 543.96 503.9 543.96 503.9 747.19 447.99 747.19 447.99 923.91 503.9 923.91 503.9 1127.13 516.33 1127.13 516.33 923.91 572.24 923.91 572.24 747.19 516.33 747.19 516.33 543.96"/>
              <polygon class="cls-63" points="319.27 306.32 309.71 306.32 309.71 489.48 252.37 489.48 252.37 874.2 309.71 874.2 309.71 1057.36 319.27 1057.36 319.27 874.2 376.62 874.2 376.62 489.48 319.27 489.48 319.27 306.32"/>
              <polygon class="cls-40" points="125.08 307.89 112.66 307.89 112.66 542.86 56.74 542.86 56.74 747.19 112.66 747.19 112.66 982.16 125.08 982.16 125.08 747.19 180.99 747.19 180.99 542.86 125.08 542.86 125.08 307.89"/>
              <polygon class="cls-40" points="1159.12 390.08 1103.2 390.08 1103.2 155.11 1090.78 155.11 1090.78 390.08 1034.86 390.08 1034.86 594.41 1090.78 594.41 1090.78 829.38 1103.2 829.38 1103.2 594.41 1159.12 594.41 1159.12 390.08"/>
            </g>
            <g>
              <polygon class="cls-18" points="911.63 371.82 899.21 371.82 899.21 570.68 843.29 570.68 843.29 743.59 899.21 743.59 899.21 942.46 911.63 942.46 911.63 743.59 967.55 743.59 967.55 570.68 911.63 570.68 911.63 371.82"/>
              <polygon class="cls-53" points="716.01 526.43 703.58 526.43 703.58 677.79 647.67 677.79 647.67 809.41 703.58 809.41 703.58 960.77 716.01 960.77 716.01 809.41 771.92 809.41 771.92 677.79 716.01 677.79 716.01 526.43"/>
              <polygon class="cls-18" points="520.38 539.91 507.96 539.91 507.96 743.13 452.04 743.13 452.04 919.85 507.96 919.85 507.96 1123.07 520.38 1123.07 520.38 919.85 576.3 919.85 576.3 743.13 520.38 743.13 520.38 539.91"/>
              <polygon class="cls-53" points="323.33 302.27 313.76 302.27 313.76 485.43 256.42 485.43 256.42 870.15 313.76 870.15 313.76 1053.3 323.33 1053.3 323.33 870.15 380.67 870.15 380.67 485.43 323.33 485.43 323.33 302.27"/>
              <polygon class="cls-18" points="129.13 303.83 116.71 303.83 116.71 538.81 60.79 538.81 60.79 743.13 116.71 743.13 116.71 978.11 129.13 978.11 129.13 743.13 185.05 743.13 185.05 538.81 129.13 538.81 129.13 303.83"/>
              <polygon class="cls-18" points="1163.17 386.03 1107.26 386.03 1107.26 151.05 1094.83 151.05 1094.83 386.03 1038.92 386.03 1038.92 590.35 1094.83 590.35 1094.83 825.33 1107.26 825.33 1107.26 590.35 1163.17 590.35 1163.17 386.03"/>
            </g>
            <g>
              <polygon class="cls-46" points="915.68 367.77 903.26 367.77 903.26 566.63 847.35 566.63 847.35 739.54 903.26 739.54 903.26 938.4 915.68 938.4 915.68 739.54 971.6 739.54 971.6 566.63 915.68 566.63 915.68 367.77"/>
              <polygon class="cls-55" points="720.06 522.38 707.64 522.38 707.64 673.74 651.72 673.74 651.72 805.36 707.64 805.36 707.64 956.72 720.06 956.72 720.06 805.36 775.97 805.36 775.97 673.74 720.06 673.74 720.06 522.38"/>
              <polygon class="cls-46" points="524.44 535.86 512.01 535.86 512.01 739.08 456.1 739.08 456.1 915.8 512.01 915.8 512.01 1119.02 524.44 1119.02 524.44 915.8 580.35 915.8 580.35 739.08 524.44 739.08 524.44 535.86"/>
              <polygon class="cls-55" points="327.38 298.21 317.82 298.21 317.82 481.38 260.47 481.38 260.47 866.1 317.82 866.1 317.82 1049.25 327.38 1049.25 327.38 866.1 384.72 866.1 384.72 481.38 327.38 481.38 327.38 298.21"/>
              <polygon class="cls-46" points="133.19 299.78 120.76 299.78 120.76 534.75 64.85 534.75 64.85 739.08 120.76 739.08 120.76 974.05 133.19 974.05 133.19 739.08 189.1 739.08 189.1 534.75 133.19 534.75 133.19 299.78"/>
              <polygon class="cls-46" points="1167.22 381.98 1111.31 381.98 1111.31 147 1098.88 147 1098.88 381.98 1042.97 381.98 1042.97 586.3 1098.88 586.3 1098.88 821.28 1111.31 821.28 1111.31 586.3 1167.22 586.3 1167.22 381.98"/>
            </g>
            <g>
              <polygon class="cls-28" points="919.74 363.71 907.31 363.71 907.31 562.58 851.4 562.58 851.4 735.49 907.31 735.49 907.31 934.35 919.74 934.35 919.74 735.49 975.65 735.49 975.65 562.58 919.74 562.58 919.74 363.71"/>
              <polygon class="cls-54" points="724.11 518.32 711.69 518.32 711.69 669.68 655.77 669.68 655.77 801.3 711.69 801.3 711.69 952.66 724.11 952.66 724.11 801.3 780.03 801.3 780.03 669.68 724.11 669.68 724.11 518.32"/>
              <polygon class="cls-28" points="528.49 531.81 516.06 531.81 516.06 735.03 460.15 735.03 460.15 911.75 516.06 911.75 516.06 1114.97 528.49 1114.97 528.49 911.75 584.4 911.75 584.4 735.03 528.49 735.03 528.49 531.81"/>
              <polygon class="cls-54" points="331.43 294.16 321.87 294.16 321.87 477.32 264.52 477.32 264.52 862.05 321.87 862.05 321.87 1045.2 331.43 1045.2 331.43 862.05 388.78 862.05 388.78 477.32 331.43 477.32 331.43 294.16"/>
              <polygon class="cls-28" points="137.24 295.73 124.81 295.73 124.81 530.7 68.9 530.7 68.9 735.03 124.81 735.03 124.81 970 137.24 970 137.24 735.03 193.15 735.03 193.15 530.7 137.24 530.7 137.24 295.73"/>
              <polygon class="cls-28" points="1171.28 377.92 1115.36 377.92 1115.36 142.95 1102.94 142.95 1102.94 377.92 1047.02 377.92 1047.02 582.25 1102.94 582.25 1102.94 817.22 1115.36 817.22 1115.36 582.25 1171.28 582.25 1171.28 377.92"/>
            </g>
            <g>
              <polygon class="cls-52" points="923.79 359.66 911.37 359.66 911.37 558.53 855.45 558.53 855.45 731.43 911.37 731.43 911.37 930.3 923.79 930.3 923.79 731.43 979.7 731.43 979.7 558.53 923.79 558.53 923.79 359.66"/>
              <polygon class="cls-45" points="728.17 514.27 715.74 514.27 715.74 665.63 659.83 665.63 659.83 797.25 715.74 797.25 715.74 948.61 728.17 948.61 728.17 797.25 784.08 797.25 784.08 665.63 728.17 665.63 728.17 514.27"/>
              <polygon class="cls-52" points="532.54 527.75 520.12 527.75 520.12 730.97 464.2 730.97 464.2 907.69 520.12 907.69 520.12 1110.91 532.54 1110.91 532.54 907.69 588.46 907.69 588.46 730.97 532.54 730.97 532.54 527.75"/>
              <polygon class="cls-45" points="335.48 290.11 325.92 290.11 325.92 473.27 268.58 473.27 268.58 857.99 325.92 857.99 325.92 1041.14 335.48 1041.14 335.48 857.99 392.83 857.99 392.83 473.27 335.48 473.27 335.48 290.11"/>
              <polygon class="cls-52" points="141.29 291.67 128.87 291.67 128.87 526.65 72.95 526.65 72.95 730.97 128.87 730.97 128.87 965.95 141.29 965.95 141.29 730.97 197.21 730.97 197.21 526.65 141.29 526.65 141.29 291.67"/>
              <polygon class="cls-52" points="1175.33 373.87 1119.42 373.87 1119.42 138.89 1106.99 138.89 1106.99 373.87 1051.08 373.87 1051.08 578.19 1106.99 578.19 1106.99 813.17 1119.42 813.17 1119.42 578.19 1175.33 578.19 1175.33 373.87"/>
            </g>
            <g>
              <polygon class="cls-25" points="927.84 355.61 915.42 355.61 915.42 554.47 859.51 554.47 859.51 727.38 915.42 727.38 915.42 926.25 927.84 926.25 927.84 727.38 983.76 727.38 983.76 554.47 927.84 554.47 927.84 355.61"/>
              <polygon class="cls-5" points="732.22 510.22 719.79 510.22 719.79 661.58 663.88 661.58 663.88 793.2 719.79 793.2 719.79 944.56 732.22 944.56 732.22 793.2 788.13 793.2 788.13 661.58 732.22 661.58 732.22 510.22"/>
              <polygon class="cls-25" points="536.59 523.7 524.17 523.7 524.17 726.92 468.26 726.92 468.26 903.64 524.17 903.64 524.17 1106.86 536.59 1106.86 536.59 903.64 592.51 903.64 592.51 726.92 536.59 726.92 536.59 523.7"/>
              <polygon class="cls-5" points="339.54 286.06 329.98 286.06 329.98 469.22 272.63 469.22 272.63 853.94 329.98 853.94 329.98 1037.09 339.54 1037.09 339.54 853.94 396.88 853.94 396.88 469.22 339.54 469.22 339.54 286.06"/>
              <polygon class="cls-25" points="145.34 287.62 132.92 287.62 132.92 522.6 77.01 522.6 77.01 726.92 132.92 726.92 132.92 961.9 145.34 961.9 145.34 726.92 201.26 726.92 201.26 522.6 145.34 522.6 145.34 287.62"/>
              <polygon class="cls-25" points="1179.38 369.82 1123.47 369.82 1123.47 134.84 1111.04 134.84 1111.04 369.82 1055.13 369.82 1055.13 574.14 1111.04 574.14 1111.04 809.12 1123.47 809.12 1123.47 574.14 1179.38 574.14 1179.38 369.82"/>
            </g>
            <g>
              <polygon class="cls-10" points="931.9 351.55 919.47 351.55 919.47 550.42 863.56 550.42 863.56 723.33 919.47 723.33 919.47 922.19 931.9 922.19 931.9 723.33 987.81 723.33 987.81 550.42 931.9 550.42 931.9 351.55"/>
              <polygon class="cls-62" points="736.27 506.17 723.85 506.17 723.85 657.53 667.93 657.53 667.93 789.14 723.85 789.14 723.85 940.5 736.27 940.5 736.27 789.14 792.19 789.14 792.19 657.53 736.27 657.53 736.27 506.17"/>
              <polygon class="cls-10" points="540.65 519.65 528.22 519.65 528.22 722.87 472.31 722.87 472.31 899.59 528.22 899.59 528.22 1102.81 540.65 1102.81 540.65 899.59 596.56 899.59 596.56 722.87 540.65 722.87 540.65 519.65"/>
              <polygon class="cls-62" points="343.59 282 334.03 282 334.03 465.16 276.68 465.16 276.68 849.89 334.03 849.89 334.03 1033.04 343.59 1033.04 343.59 849.89 400.94 849.89 400.94 465.16 343.59 465.16 343.59 282"/>
              <polygon class="cls-10" points="149.4 283.57 136.97 283.57 136.97 518.54 81.06 518.54 81.06 722.87 136.97 722.87 136.97 957.84 149.4 957.84 149.4 722.87 205.31 722.87 205.31 518.54 149.4 518.54 149.4 283.57"/>
              <polygon class="cls-10" points="1183.43 365.76 1127.52 365.76 1127.52 130.79 1115.1 130.79 1115.1 365.76 1059.18 365.76 1059.18 570.09 1115.1 570.09 1115.1 805.06 1127.52 805.06 1127.52 570.09 1183.43 570.09 1183.43 365.76"/>
            </g>
            <g>
              <polygon class="cls-17" points="935.95 347.5 923.52 347.5 923.52 546.37 867.61 546.37 867.61 719.28 923.52 719.28 923.52 918.14 935.95 918.14 935.95 719.28 991.86 719.28 991.86 546.37 935.95 546.37 935.95 347.5"/>
              <polygon class="cls-51" points="740.33 502.11 727.9 502.11 727.9 653.47 671.99 653.47 671.99 785.09 727.9 785.09 727.9 936.45 740.33 936.45 740.33 785.09 796.24 785.09 796.24 653.47 740.33 653.47 740.33 502.11"/>
              <polygon class="cls-17" points="544.7 515.59 532.27 515.59 532.27 718.81 476.36 718.81 476.36 895.53 532.27 895.53 532.27 1098.75 544.7 1098.75 544.7 895.53 600.61 895.53 600.61 718.81 544.7 718.81 544.7 515.59"/>
              <polygon class="cls-51" points="347.64 277.95 338.08 277.95 338.08 461.11 280.74 461.11 280.74 845.83 338.08 845.83 338.08 1028.98 347.64 1028.98 347.64 845.83 404.99 845.83 404.99 461.11 347.64 461.11 347.64 277.95"/>
              <polygon class="cls-17" points="153.45 279.51 141.03 279.51 141.03 514.49 85.11 514.49 85.11 718.81 141.03 718.81 141.03 953.79 153.45 953.79 153.45 718.81 209.36 718.81 209.36 514.49 153.45 514.49 153.45 279.51"/>
              <polygon class="cls-17" points="1187.49 361.71 1131.57 361.71 1131.57 126.73 1119.15 126.73 1119.15 361.71 1063.24 361.71 1063.24 566.04 1119.15 566.04 1119.15 801.01 1131.57 801.01 1131.57 566.04 1187.49 566.04 1187.49 361.71"/>
            </g>
            <g>
              <polygon class="cls-4" points="940 343.45 927.58 343.45 927.58 542.31 871.66 542.31 871.66 715.22 927.58 715.22 927.58 914.09 940 914.09 940 715.22 995.92 715.22 995.92 542.31 940 542.31 940 343.45"/>
              <polygon class="cls-48" points="744.38 498.06 731.95 498.06 731.95 649.42 676.04 649.42 676.04 781.04 731.95 781.04 731.95 932.4 744.38 932.4 744.38 781.04 800.29 781.04 800.29 649.42 744.38 649.42 744.38 498.06"/>
              <polygon class="cls-4" points="548.75 511.54 536.33 511.54 536.33 714.76 480.41 714.76 480.41 891.48 536.33 891.48 536.33 1094.7 548.75 1094.7 548.75 891.48 604.67 891.48 604.67 714.76 548.75 714.76 548.75 511.54"/>
              <polygon class="cls-48" points="351.7 273.9 342.14 273.9 342.14 457.06 284.79 457.06 284.79 841.78 342.14 841.78 342.14 1024.93 351.7 1024.93 351.7 841.78 409.04 841.78 409.04 457.06 351.7 457.06 351.7 273.9"/>
              <polygon class="cls-4" points="157.5 275.46 145.08 275.46 145.08 510.44 89.17 510.44 89.17 714.76 145.08 714.76 145.08 949.74 157.5 949.74 157.5 714.76 213.42 714.76 213.42 510.44 157.5 510.44 157.5 275.46"/>
              <polygon class="cls-4" points="1191.54 357.66 1135.63 357.66 1135.63 122.68 1123.2 122.68 1123.2 357.66 1067.29 357.66 1067.29 561.98 1123.2 561.98 1123.2 796.96 1135.63 796.96 1135.63 561.98 1191.54 561.98 1191.54 357.66"/>
            </g>
            <g>
              <polygon class="cls-11" points="944.06 339.4 931.63 339.4 931.63 538.26 875.72 538.26 875.72 711.17 931.63 711.17 931.63 910.03 944.06 910.03 944.06 711.17 999.97 711.17 999.97 538.26 944.06 538.26 944.06 339.4"/>
              <polygon class="cls-59" points="748.43 494.01 736.01 494.01 736.01 645.37 680.09 645.37 680.09 776.98 736.01 776.98 736.01 928.34 748.43 928.34 748.43 776.98 804.34 776.98 804.34 645.37 748.43 645.37 748.43 494.01"/>
              <polygon class="cls-11" points="552.81 507.49 540.38 507.49 540.38 710.71 484.47 710.71 484.47 887.43 540.38 887.43 540.38 1090.65 552.81 1090.65 552.81 887.43 608.72 887.43 608.72 710.71 552.81 710.71 552.81 507.49"/>
              <polygon class="cls-59" points="355.75 269.84 346.19 269.84 346.19 453.01 288.84 453.01 288.84 837.73 346.19 837.73 346.19 1020.88 355.75 1020.88 355.75 837.73 413.1 837.73 413.1 453.01 355.75 453.01 355.75 269.84"/>
              <polygon class="cls-11" points="161.56 271.41 149.13 271.41 149.13 506.38 93.22 506.38 93.22 710.71 149.13 710.71 149.13 945.68 161.56 945.68 161.56 710.71 217.47 710.71 217.47 506.38 161.56 506.38 161.56 271.41"/>
              <polygon class="cls-11" points="1195.59 353.6 1139.68 353.6 1139.68 118.63 1127.26 118.63 1127.26 353.6 1071.34 353.6 1071.34 557.93 1127.26 557.93 1127.26 792.9 1139.68 792.9 1139.68 557.93 1195.59 557.93 1195.59 353.6"/>
            </g>
            <g>
              <polygon class="cls-1" points="948.11 335.34 935.68 335.34 935.68 534.21 879.77 534.21 879.77 707.12 935.68 707.12 935.68 905.98 948.11 905.98 948.11 707.12 1004.02 707.12 1004.02 534.21 948.11 534.21 948.11 335.34"/>
              <polygon class="cls-8" points="752.48 489.95 740.06 489.95 740.06 641.31 684.15 641.31 684.15 772.93 740.06 772.93 740.06 924.29 752.48 924.29 752.48 772.93 808.4 772.93 808.4 641.31 752.48 641.31 752.48 489.95"/>
              <polygon class="cls-1" points="556.86 503.43 544.43 503.43 544.43 706.66 488.52 706.66 488.52 883.38 544.43 883.38 544.43 1086.6 556.86 1086.6 556.86 883.38 612.77 883.38 612.77 706.66 556.86 706.66 556.86 503.43"/>
              <polygon class="cls-8" points="359.8 265.79 350.24 265.79 350.24 448.95 292.9 448.95 292.9 833.67 350.24 833.67 350.24 1016.83 359.8 1016.83 359.8 833.67 417.15 833.67 417.15 448.95 359.8 448.95 359.8 265.79"/>
              <polygon class="cls-1" points="165.61 267.36 153.19 267.36 153.19 502.33 97.27 502.33 97.27 706.66 153.19 706.66 153.19 941.63 165.61 941.63 165.61 706.66 221.52 706.66 221.52 502.33 165.61 502.33 165.61 267.36"/>
              <polygon class="cls-1" points="1199.65 349.55 1143.73 349.55 1143.73 114.58 1131.31 114.58 1131.31 349.55 1075.39 349.55 1075.39 553.88 1131.31 553.88 1131.31 788.85 1143.73 788.85 1143.73 553.88 1199.65 553.88 1199.65 349.55"/>
            </g>
            <g>
              <polygon class="cls-56" points="952.16 331.29 939.74 331.29 939.74 530.15 883.82 530.15 883.82 703.06 939.74 703.06 939.74 901.93 952.16 901.93 952.16 703.06 1008.08 703.06 1008.08 530.15 952.16 530.15 952.16 331.29"/>
              <polygon class="cls-30" points="756.54 485.9 744.11 485.9 744.11 637.26 688.2 637.26 688.2 768.88 744.11 768.88 744.11 920.24 756.54 920.24 756.54 768.88 812.45 768.88 812.45 637.26 756.54 637.26 756.54 485.9"/>
              <polygon class="cls-56" points="560.91 499.38 548.49 499.38 548.49 702.6 492.57 702.6 492.57 879.32 548.49 879.32 548.49 1082.54 560.91 1082.54 560.91 879.32 616.83 879.32 616.83 702.6 560.91 702.6 560.91 499.38"/>
              <polygon class="cls-30" points="363.86 261.74 354.29 261.74 354.29 444.9 296.95 444.9 296.95 829.62 354.29 829.62 354.29 1012.77 363.86 1012.77 363.86 829.62 421.2 829.62 421.2 444.9 363.86 444.9 363.86 261.74"/>
              <polygon class="cls-56" points="169.66 263.3 157.24 263.3 157.24 498.28 101.32 498.28 101.32 702.6 157.24 702.6 157.24 937.58 169.66 937.58 169.66 702.6 225.58 702.6 225.58 498.28 169.66 498.28 169.66 263.3"/>
              <polygon class="cls-56" points="1203.7 345.5 1147.79 345.5 1147.79 110.52 1135.36 110.52 1135.36 345.5 1079.45 345.5 1079.45 549.82 1135.36 549.82 1135.36 784.8 1147.79 784.8 1147.79 549.82 1203.7 549.82 1203.7 345.5"/>
            </g>
            <g>
              <polygon class="cls-50" points="956.21 327.24 943.79 327.24 943.79 526.1 887.88 526.1 887.88 699.01 943.79 699.01 943.79 897.88 956.21 897.88 956.21 699.01 1012.13 699.01 1012.13 526.1 956.21 526.1 956.21 327.24"/>
              <polygon class="cls-41" points="760.59 481.85 748.16 481.85 748.16 633.21 692.25 633.21 692.25 764.83 748.16 764.83 748.16 916.19 760.59 916.19 760.59 764.83 816.5 764.83 816.5 633.21 760.59 633.21 760.59 481.85"/>
              <polygon class="cls-50" points="564.97 495.33 552.54 495.33 552.54 698.55 496.63 698.55 496.63 875.27 552.54 875.27 552.54 1078.49 564.97 1078.49 564.97 875.27 620.88 875.27 620.88 698.55 564.97 698.55 564.97 495.33"/>
              <polygon class="cls-41" points="367.91 257.68 358.35 257.68 358.35 440.85 301 440.85 301 825.57 358.35 825.57 358.35 1008.72 367.91 1008.72 367.91 825.57 425.25 825.57 425.25 440.85 367.91 440.85 367.91 257.68"/>
              <polygon class="cls-50" points="173.72 259.25 161.29 259.25 161.29 494.22 105.38 494.22 105.38 698.55 161.29 698.55 161.29 933.52 173.72 933.52 173.72 698.55 229.63 698.55 229.63 494.22 173.72 494.22 173.72 259.25"/>
              <polygon class="cls-50" points="1207.75 341.45 1151.84 341.45 1151.84 106.47 1139.41 106.47 1139.41 341.45 1083.5 341.45 1083.5 545.77 1139.41 545.77 1139.41 780.75 1151.84 780.75 1151.84 545.77 1207.75 545.77 1207.75 341.45"/>
            </g>
            <g>
              <polygon class="cls-49" points="960.27 323.18 947.84 323.18 947.84 522.05 891.93 522.05 891.93 694.96 947.84 694.96 947.84 893.82 960.27 893.82 960.27 694.96 1016.18 694.96 1016.18 522.05 960.27 522.05 960.27 323.18"/>
              <polygon class="cls-21" points="764.64 477.8 752.22 477.8 752.22 629.15 696.3 629.15 696.3 760.77 752.22 760.77 752.22 912.13 764.64 912.13 764.64 760.77 820.56 760.77 820.56 629.15 764.64 629.15 764.64 477.8"/>
              <polygon class="cls-49" points="569.02 491.28 556.59 491.28 556.59 694.5 500.68 694.5 500.68 871.22 556.59 871.22 556.59 1074.44 569.02 1074.44 569.02 871.22 624.93 871.22 624.93 694.5 569.02 694.5 569.02 491.28"/>
              <polygon class="cls-21" points="371.96 253.63 362.4 253.63 362.4 436.79 305.05 436.79 305.05 821.52 362.4 821.52 362.4 1004.67 371.96 1004.67 371.96 821.52 429.31 821.52 429.31 436.79 371.96 436.79 371.96 253.63"/>
              <polygon class="cls-49" points="177.77 255.2 165.34 255.2 165.34 490.17 109.43 490.17 109.43 694.5 165.34 694.5 165.34 929.47 177.77 929.47 177.77 694.5 233.68 694.5 233.68 490.17 177.77 490.17 177.77 255.2"/>
              <polygon class="cls-49" points="1211.81 337.39 1155.89 337.39 1155.89 102.42 1143.47 102.42 1143.47 337.39 1087.55 337.39 1087.55 541.72 1143.47 541.72 1143.47 776.69 1155.89 776.69 1155.89 541.72 1211.81 541.72 1211.81 337.39"/>
            </g>
            <g>
              <polygon class="cls-20" points="964.32 319.13 951.9 319.13 951.9 518 895.98 518 895.98 690.9 951.9 690.9 951.9 889.77 964.32 889.77 964.32 690.9 1020.23 690.9 1020.23 518 964.32 518 964.32 319.13"/>
              <polygon class="cls-43" points="768.7 473.74 756.27 473.74 756.27 625.1 700.36 625.1 700.36 756.72 756.27 756.72 756.27 908.08 768.7 908.08 768.7 756.72 824.61 756.72 824.61 625.1 768.7 625.1 768.7 473.74"/>
              <polygon class="cls-20" points="573.07 487.22 560.65 487.22 560.65 690.44 504.73 690.44 504.73 867.16 560.65 867.16 560.65 1070.38 573.07 1070.38 573.07 867.16 628.98 867.16 628.98 690.44 573.07 690.44 573.07 487.22"/>
              <polygon class="cls-43" points="376.01 249.58 366.45 249.58 366.45 432.74 309.11 432.74 309.11 817.46 366.45 817.46 366.45 1000.61 376.01 1000.61 376.01 817.46 433.36 817.46 433.36 432.74 376.01 432.74 376.01 249.58"/>
              <polygon class="cls-20" points="181.82 251.14 169.4 251.14 169.4 486.12 113.48 486.12 113.48 690.44 169.4 690.44 169.4 925.42 181.82 925.42 181.82 690.44 237.74 690.44 237.74 486.12 181.82 486.12 181.82 251.14"/>
              <polygon class="cls-20" points="1215.86 333.34 1159.94 333.34 1159.94 98.36 1147.52 98.36 1147.52 333.34 1091.61 333.34 1091.61 537.66 1147.52 537.66 1147.52 772.64 1159.94 772.64 1159.94 537.66 1215.86 537.66 1215.86 333.34"/>
            </g>
            <g>
              <polygon class="cls-16" points="968.37 315.08 955.95 315.08 955.95 513.94 900.03 513.94 900.03 686.85 955.95 686.85 955.95 885.72 968.37 885.72 968.37 686.85 1024.29 686.85 1024.29 513.94 968.37 513.94 968.37 315.08"/>
              <polygon class="cls-31" points="772.75 469.69 760.32 469.69 760.32 621.05 704.41 621.05 704.41 752.67 760.32 752.67 760.32 904.03 772.75 904.03 772.75 752.67 828.66 752.67 828.66 621.05 772.75 621.05 772.75 469.69"/>
              <polygon class="cls-16" points="577.12 483.17 564.7 483.17 564.7 686.39 508.79 686.39 508.79 863.11 564.7 863.11 564.7 1066.33 577.12 1066.33 577.12 863.11 633.04 863.11 633.04 686.39 577.12 686.39 577.12 483.17"/>
              <polygon class="cls-31" points="380.07 245.53 370.51 245.53 370.51 428.69 313.16 428.69 313.16 813.41 370.51 813.41 370.51 996.56 380.07 996.56 380.07 813.41 437.41 813.41 437.41 428.69 380.07 428.69 380.07 245.53"/>
              <polygon class="cls-16" points="185.87 247.09 173.45 247.09 173.45 482.07 117.54 482.07 117.54 686.39 173.45 686.39 173.45 921.37 185.87 921.37 185.87 686.39 241.79 686.39 241.79 482.07 185.87 482.07 185.87 247.09"/>
              <polygon class="cls-16" points="1219.91 329.29 1164 329.29 1164 94.31 1151.57 94.31 1151.57 329.29 1095.66 329.29 1095.66 533.61 1151.57 533.61 1151.57 768.59 1164 768.59 1164 533.61 1219.91 533.61 1219.91 329.29"/>
            </g>
            <g>
              <polygon class="cls-38" points="972.43 311.02 960 311.02 960 509.89 904.09 509.89 904.09 682.8 960 682.8 960 881.66 972.43 881.66 972.43 682.8 1028.34 682.8 1028.34 509.89 972.43 509.89 972.43 311.02"/>
              <polygon class="cls-24" points="776.8 465.64 764.38 465.64 764.38 617 708.46 617 708.46 748.61 764.38 748.61 764.38 899.97 776.8 899.97 776.8 748.61 832.72 748.61 832.72 617 776.8 617 776.8 465.64"/>
              <polygon class="cls-38" points="581.18 479.12 568.75 479.12 568.75 682.34 512.84 682.34 512.84 859.06 568.75 859.06 568.75 1062.28 581.18 1062.28 581.18 859.06 637.09 859.06 637.09 682.34 581.18 682.34 581.18 479.12"/>
              <polygon class="cls-24" points="384.12 241.47 374.56 241.47 374.56 424.63 317.21 424.63 317.21 809.36 374.56 809.36 374.56 992.51 384.12 992.51 384.12 809.36 441.47 809.36 441.47 424.63 384.12 424.63 384.12 241.47"/>
              <polygon class="cls-38" points="189.93 243.04 177.5 243.04 177.5 478.01 121.59 478.01 121.59 682.34 177.5 682.34 177.5 917.31 189.93 917.31 189.93 682.34 245.84 682.34 245.84 478.01 189.93 478.01 189.93 243.04"/>
              <polygon class="cls-38" points="1223.96 325.23 1168.05 325.23 1168.05 90.26 1155.63 90.26 1155.63 325.23 1099.71 325.23 1099.71 529.56 1155.63 529.56 1155.63 764.53 1168.05 764.53 1168.05 529.56 1223.96 529.56 1223.96 325.23"/>
            </g>
            <g>
              <polygon class="cls-14" points="976.48 306.97 964.05 306.97 964.05 505.84 908.14 505.84 908.14 678.75 964.05 678.75 964.05 877.61 976.48 877.61 976.48 678.75 1032.39 678.75 1032.39 505.84 976.48 505.84 976.48 306.97"/>
              <polygon class="cls-27" points="780.86 461.58 768.43 461.58 768.43 612.94 712.52 612.94 712.52 744.56 768.43 744.56 768.43 895.92 780.86 895.92 780.86 744.56 836.77 744.56 836.77 612.94 780.86 612.94 780.86 461.58"/>
              <polygon class="cls-14" points="585.23 475.06 572.8 475.06 572.8 678.28 516.89 678.28 516.89 855 572.8 855 572.8 1058.23 585.23 1058.23 585.23 855 641.14 855 641.14 678.28 585.23 678.28 585.23 475.06"/>
              <polygon class="cls-27" points="388.17 237.42 378.61 237.42 378.61 420.58 321.27 420.58 321.27 805.3 378.61 805.3 378.61 988.45 388.17 988.45 388.17 805.3 445.52 805.3 445.52 420.58 388.17 420.58 388.17 237.42"/>
              <polygon class="cls-14" points="193.98 238.98 181.56 238.98 181.56 473.96 125.64 473.96 125.64 678.28 181.56 678.28 181.56 913.26 193.98 913.26 193.98 678.28 249.89 678.28 249.89 473.96 193.98 473.96 193.98 238.98"/>
              <polygon class="cls-14" points="1228.02 321.18 1172.1 321.18 1172.1 86.21 1159.68 86.21 1159.68 321.18 1103.77 321.18 1103.77 525.51 1159.68 525.51 1159.68 760.48 1172.1 760.48 1172.1 525.51 1228.02 525.51 1228.02 321.18"/>
            </g>
          </g>
          <g>
            <polygon class="cls-14" points="976.48 306.97 964.05 306.97 964.05 505.84 908.14 505.84 908.14 678.75 964.05 678.75 964.05 877.61 976.48 877.61 976.48 678.75 1032.39 678.75 1032.39 505.84 976.48 505.84 976.48 306.97"/>
            <polygon class="cls-27" points="780.86 461.58 768.43 461.58 768.43 612.94 712.52 612.94 712.52 744.56 768.43 744.56 768.43 895.92 780.86 895.92 780.86 744.56 836.77 744.56 836.77 612.94 780.86 612.94 780.86 461.58"/>
            <polygon class="cls-14" points="585.23 475.06 572.8 475.06 572.8 678.28 516.89 678.28 516.89 855 572.8 855 572.8 1058.23 585.23 1058.23 585.23 855 641.14 855 641.14 678.28 585.23 678.28 585.23 475.06"/>
            <polygon class="cls-27" points="388.17 237.42 378.61 237.42 378.61 420.58 321.27 420.58 321.27 805.3 378.61 805.3 378.61 988.45 388.17 988.45 388.17 805.3 445.52 805.3 445.52 420.58 388.17 420.58 388.17 237.42"/>
            <polygon class="cls-14" points="193.98 238.98 181.56 238.98 181.56 473.96 125.64 473.96 125.64 678.28 181.56 678.28 181.56 913.26 193.98 913.26 193.98 678.28 249.89 678.28 249.89 473.96 193.98 473.96 193.98 238.98"/>
            <polygon class="cls-14" points="1228.02 321.18 1172.1 321.18 1172.1 86.21 1159.68 86.21 1159.68 321.18 1103.77 321.18 1103.77 525.51 1159.68 525.51 1159.68 760.48 1172.1 760.48 1172.1 525.51 1228.02 525.51 1228.02 321.18"/>
          </g>
        </g>
      </g>
    </g>
  </g>
</svg>